<mxfile host="Electron" modified="2023-07-22T21:40:20.027Z" agent="Mozilla/5.0 (Windows NT 10.0; Win64; x64) AppleWebKit/537.36 (KHTML, like Gecko) draw.io/21.6.1 Chrome/112.0.5615.204 Electron/24.6.1 Safari/537.36" etag="wQgLGLToD7DVXv1uyRlV" version="21.6.1" type="device">
  <diagram name="Page-1" id="K31kuYcgM2VKgivSkCHw">
    <mxGraphModel dx="2800" dy="2455" grid="1" gridSize="10" guides="1" tooltips="1" connect="1" arrows="1" fold="1" page="1" pageScale="1" pageWidth="850" pageHeight="1100" math="0" shadow="0">
      <root>
        <mxCell id="0" />
        <mxCell id="1" parent="0" />
        <mxCell id="qeXCjTXnuI4fohfO-JNT-13" value="&lt;font style=&quot;font-size: 20px;&quot;&gt;Home Page&lt;/font&gt;" style="text;html=1;strokeColor=none;fillColor=none;align=center;verticalAlign=middle;whiteSpace=wrap;rounded=0;" parent="1" vertex="1">
          <mxGeometry x="220" y="-660" width="160" height="20" as="geometry" />
        </mxCell>
        <mxCell id="qeXCjTXnuI4fohfO-JNT-14" value="" style="rounded=0;whiteSpace=wrap;html=1;" parent="1" vertex="1">
          <mxGeometry x="20" y="-620" width="560" height="790" as="geometry" />
        </mxCell>
        <mxCell id="qeXCjTXnuI4fohfO-JNT-15" value="" style="rounded=0;whiteSpace=wrap;html=1;" parent="1" vertex="1">
          <mxGeometry x="20" y="-620" width="560" height="40" as="geometry" />
        </mxCell>
        <mxCell id="qeXCjTXnuI4fohfO-JNT-16" value="&lt;font style=&quot;font-size: 15px;&quot;&gt;Contact&amp;nbsp;&lt;/font&gt;" style="text;html=1;strokeColor=none;fillColor=none;align=center;verticalAlign=middle;whiteSpace=wrap;rounded=0;" parent="1" vertex="1">
          <mxGeometry x="510" y="-615" width="60" height="30" as="geometry" />
        </mxCell>
        <mxCell id="qeXCjTXnuI4fohfO-JNT-17" value="&lt;font style=&quot;font-size: 14px;&quot;&gt;Logo&lt;/font&gt;" style="text;html=1;strokeColor=none;fillColor=none;align=center;verticalAlign=middle;whiteSpace=wrap;rounded=0;" parent="1" vertex="1">
          <mxGeometry x="30" y="-615" width="60" height="30" as="geometry" />
        </mxCell>
        <mxCell id="qeXCjTXnuI4fohfO-JNT-18" value="&lt;font style=&quot;font-size: 15px;&quot;&gt;About&lt;/font&gt;" style="text;html=1;strokeColor=none;fillColor=none;align=center;verticalAlign=middle;whiteSpace=wrap;rounded=0;" parent="1" vertex="1">
          <mxGeometry x="440" y="-615" width="60" height="30" as="geometry" />
        </mxCell>
        <mxCell id="qeXCjTXnuI4fohfO-JNT-20" value="More then 3 IMG" style="rounded=0;whiteSpace=wrap;html=1;" parent="1" vertex="1">
          <mxGeometry x="30" y="-570" width="540" height="240" as="geometry" />
        </mxCell>
        <mxCell id="qeXCjTXnuI4fohfO-JNT-21" value="" style="triangle;whiteSpace=wrap;html=1;" parent="1" vertex="1">
          <mxGeometry x="530" y="-480" width="30" height="50" as="geometry" />
        </mxCell>
        <mxCell id="qeXCjTXnuI4fohfO-JNT-23" value="&lt;font style=&quot;font-size: 15px;&quot;&gt;Filter&lt;/font&gt;" style="rounded=1;whiteSpace=wrap;html=1;" parent="1" vertex="1">
          <mxGeometry x="30" y="-290" width="70" height="30" as="geometry" />
        </mxCell>
        <mxCell id="qeXCjTXnuI4fohfO-JNT-24" value="&lt;font style=&quot;font-size: 15px;&quot;&gt;Filter&lt;/font&gt;" style="rounded=1;whiteSpace=wrap;html=1;" parent="1" vertex="1">
          <mxGeometry x="110" y="-290" width="70" height="30" as="geometry" />
        </mxCell>
        <mxCell id="qeXCjTXnuI4fohfO-JNT-25" value="&lt;font style=&quot;font-size: 15px;&quot;&gt;Filter&lt;/font&gt;" style="rounded=1;whiteSpace=wrap;html=1;" parent="1" vertex="1">
          <mxGeometry x="190" y="-290" width="70" height="30" as="geometry" />
        </mxCell>
        <mxCell id="qeXCjTXnuI4fohfO-JNT-26" value="&lt;font style=&quot;font-size: 15px;&quot;&gt;Filter&lt;/font&gt;" style="rounded=1;whiteSpace=wrap;html=1;" parent="1" vertex="1">
          <mxGeometry x="270" y="-290" width="70" height="30" as="geometry" />
        </mxCell>
        <mxCell id="qeXCjTXnuI4fohfO-JNT-27" value="" style="rounded=0;whiteSpace=wrap;html=1;" parent="1" vertex="1">
          <mxGeometry x="50" y="-220" width="120" height="170" as="geometry" />
        </mxCell>
        <mxCell id="qeXCjTXnuI4fohfO-JNT-28" value="IMG" style="rounded=0;whiteSpace=wrap;html=1;" parent="1" vertex="1">
          <mxGeometry x="50" y="-220" width="120" height="70" as="geometry" />
        </mxCell>
        <mxCell id="qeXCjTXnuI4fohfO-JNT-31" value="Details" style="rounded=1;whiteSpace=wrap;html=1;" parent="1" vertex="1">
          <mxGeometry x="57.5" y="-80" width="45" height="25" as="geometry" />
        </mxCell>
        <mxCell id="qeXCjTXnuI4fohfO-JNT-32" value="&lt;font style=&quot;font-size: 15px;&quot;&gt;&lt;b&gt;Title&lt;/b&gt;&lt;/font&gt;" style="text;html=1;strokeColor=none;fillColor=none;align=left;verticalAlign=middle;whiteSpace=wrap;rounded=0;" parent="1" vertex="1">
          <mxGeometry x="50" y="-150" width="120" height="30" as="geometry" />
        </mxCell>
        <mxCell id="qeXCjTXnuI4fohfO-JNT-33" value="lorem lorem lorem lorem" style="text;html=1;strokeColor=none;fillColor=none;align=left;verticalAlign=middle;whiteSpace=wrap;rounded=0;" parent="1" vertex="1">
          <mxGeometry x="50" y="-120" width="120" height="30" as="geometry" />
        </mxCell>
        <mxCell id="qeXCjTXnuI4fohfO-JNT-39" value="" style="rounded=0;whiteSpace=wrap;html=1;" parent="1" vertex="1">
          <mxGeometry x="245" y="-220" width="120" height="170" as="geometry" />
        </mxCell>
        <mxCell id="qeXCjTXnuI4fohfO-JNT-40" value="IMG" style="rounded=0;whiteSpace=wrap;html=1;" parent="1" vertex="1">
          <mxGeometry x="245" y="-220" width="120" height="70" as="geometry" />
        </mxCell>
        <mxCell id="qeXCjTXnuI4fohfO-JNT-41" value="Details" style="rounded=1;whiteSpace=wrap;html=1;" parent="1" vertex="1">
          <mxGeometry x="252.5" y="-80" width="45" height="25" as="geometry" />
        </mxCell>
        <mxCell id="qeXCjTXnuI4fohfO-JNT-42" value="&lt;font style=&quot;font-size: 15px;&quot;&gt;&lt;b&gt;Title&lt;/b&gt;&lt;/font&gt;" style="text;html=1;strokeColor=none;fillColor=none;align=left;verticalAlign=middle;whiteSpace=wrap;rounded=0;" parent="1" vertex="1">
          <mxGeometry x="245" y="-150" width="120" height="30" as="geometry" />
        </mxCell>
        <mxCell id="qeXCjTXnuI4fohfO-JNT-43" value="lorem lorem lorem lorem" style="text;html=1;strokeColor=none;fillColor=none;align=left;verticalAlign=middle;whiteSpace=wrap;rounded=0;" parent="1" vertex="1">
          <mxGeometry x="245" y="-120" width="120" height="30" as="geometry" />
        </mxCell>
        <mxCell id="qeXCjTXnuI4fohfO-JNT-44" value="" style="rounded=0;whiteSpace=wrap;html=1;" parent="1" vertex="1">
          <mxGeometry x="430" y="-220" width="120" height="170" as="geometry" />
        </mxCell>
        <mxCell id="qeXCjTXnuI4fohfO-JNT-45" value="IMG" style="rounded=0;whiteSpace=wrap;html=1;" parent="1" vertex="1">
          <mxGeometry x="430" y="-220" width="120" height="70" as="geometry" />
        </mxCell>
        <mxCell id="qeXCjTXnuI4fohfO-JNT-46" value="Details" style="rounded=1;whiteSpace=wrap;html=1;" parent="1" vertex="1">
          <mxGeometry x="437.5" y="-80" width="45" height="25" as="geometry" />
        </mxCell>
        <mxCell id="qeXCjTXnuI4fohfO-JNT-47" value="&lt;font style=&quot;font-size: 15px;&quot;&gt;&lt;b&gt;Title&lt;/b&gt;&lt;/font&gt;" style="text;html=1;strokeColor=none;fillColor=none;align=left;verticalAlign=middle;whiteSpace=wrap;rounded=0;" parent="1" vertex="1">
          <mxGeometry x="430" y="-150" width="120" height="30" as="geometry" />
        </mxCell>
        <mxCell id="qeXCjTXnuI4fohfO-JNT-48" value="lorem lorem lorem lorem" style="text;html=1;strokeColor=none;fillColor=none;align=left;verticalAlign=middle;whiteSpace=wrap;rounded=0;" parent="1" vertex="1">
          <mxGeometry x="430" y="-120" width="120" height="30" as="geometry" />
        </mxCell>
        <mxCell id="qeXCjTXnuI4fohfO-JNT-49" value="" style="rounded=0;whiteSpace=wrap;html=1;" parent="1" vertex="1">
          <mxGeometry x="50" y="-30" width="120" height="170" as="geometry" />
        </mxCell>
        <mxCell id="qeXCjTXnuI4fohfO-JNT-50" value="IMG" style="rounded=0;whiteSpace=wrap;html=1;" parent="1" vertex="1">
          <mxGeometry x="50" y="-30" width="120" height="70" as="geometry" />
        </mxCell>
        <mxCell id="qeXCjTXnuI4fohfO-JNT-51" value="Details" style="rounded=1;whiteSpace=wrap;html=1;" parent="1" vertex="1">
          <mxGeometry x="57.5" y="110" width="45" height="25" as="geometry" />
        </mxCell>
        <mxCell id="qeXCjTXnuI4fohfO-JNT-52" value="&lt;font style=&quot;font-size: 15px;&quot;&gt;&lt;b&gt;Title&lt;/b&gt;&lt;/font&gt;" style="text;html=1;strokeColor=none;fillColor=none;align=left;verticalAlign=middle;whiteSpace=wrap;rounded=0;" parent="1" vertex="1">
          <mxGeometry x="50" y="40" width="120" height="30" as="geometry" />
        </mxCell>
        <mxCell id="qeXCjTXnuI4fohfO-JNT-53" value="lorem lorem lorem lorem" style="text;html=1;strokeColor=none;fillColor=none;align=left;verticalAlign=middle;whiteSpace=wrap;rounded=0;" parent="1" vertex="1">
          <mxGeometry x="50" y="70" width="120" height="30" as="geometry" />
        </mxCell>
        <mxCell id="qeXCjTXnuI4fohfO-JNT-54" value="" style="rounded=0;whiteSpace=wrap;html=1;" parent="1" vertex="1">
          <mxGeometry x="245" y="-30" width="120" height="170" as="geometry" />
        </mxCell>
        <mxCell id="qeXCjTXnuI4fohfO-JNT-55" value="IMG" style="rounded=0;whiteSpace=wrap;html=1;" parent="1" vertex="1">
          <mxGeometry x="245" y="-30" width="120" height="70" as="geometry" />
        </mxCell>
        <mxCell id="qeXCjTXnuI4fohfO-JNT-56" value="Details" style="rounded=1;whiteSpace=wrap;html=1;" parent="1" vertex="1">
          <mxGeometry x="252.5" y="110" width="45" height="25" as="geometry" />
        </mxCell>
        <mxCell id="qeXCjTXnuI4fohfO-JNT-57" value="&lt;font style=&quot;font-size: 15px;&quot;&gt;&lt;b&gt;Title&lt;/b&gt;&lt;/font&gt;" style="text;html=1;strokeColor=none;fillColor=none;align=left;verticalAlign=middle;whiteSpace=wrap;rounded=0;" parent="1" vertex="1">
          <mxGeometry x="245" y="40" width="120" height="30" as="geometry" />
        </mxCell>
        <mxCell id="qeXCjTXnuI4fohfO-JNT-58" value="lorem lorem lorem lorem" style="text;html=1;strokeColor=none;fillColor=none;align=left;verticalAlign=middle;whiteSpace=wrap;rounded=0;" parent="1" vertex="1">
          <mxGeometry x="245" y="70" width="120" height="30" as="geometry" />
        </mxCell>
        <mxCell id="qeXCjTXnuI4fohfO-JNT-59" value="" style="rounded=0;whiteSpace=wrap;html=1;" parent="1" vertex="1">
          <mxGeometry x="430" y="-30" width="120" height="170" as="geometry" />
        </mxCell>
        <mxCell id="qeXCjTXnuI4fohfO-JNT-60" value="IMG" style="rounded=0;whiteSpace=wrap;html=1;" parent="1" vertex="1">
          <mxGeometry x="430" y="-30" width="120" height="70" as="geometry" />
        </mxCell>
        <mxCell id="qeXCjTXnuI4fohfO-JNT-61" value="Details" style="rounded=1;whiteSpace=wrap;html=1;" parent="1" vertex="1">
          <mxGeometry x="437.5" y="110" width="45" height="25" as="geometry" />
        </mxCell>
        <mxCell id="qeXCjTXnuI4fohfO-JNT-62" value="&lt;font style=&quot;font-size: 15px;&quot;&gt;&lt;b&gt;Title&lt;/b&gt;&lt;/font&gt;" style="text;html=1;strokeColor=none;fillColor=none;align=left;verticalAlign=middle;whiteSpace=wrap;rounded=0;" parent="1" vertex="1">
          <mxGeometry x="430" y="40" width="120" height="30" as="geometry" />
        </mxCell>
        <mxCell id="qeXCjTXnuI4fohfO-JNT-63" value="lorem lorem lorem lorem" style="text;html=1;strokeColor=none;fillColor=none;align=left;verticalAlign=middle;whiteSpace=wrap;rounded=0;" parent="1" vertex="1">
          <mxGeometry x="430" y="70" width="120" height="30" as="geometry" />
        </mxCell>
        <mxCell id="qeXCjTXnuI4fohfO-JNT-69" value="&lt;font style=&quot;font-size: 20px;&quot;&gt;About Us Page&lt;/font&gt;" style="text;html=1;strokeColor=none;fillColor=none;align=center;verticalAlign=middle;whiteSpace=wrap;rounded=0;" parent="1" vertex="1">
          <mxGeometry x="870" y="-660" width="160" height="20" as="geometry" />
        </mxCell>
        <mxCell id="qeXCjTXnuI4fohfO-JNT-70" value="" style="rounded=0;whiteSpace=wrap;html=1;" parent="1" vertex="1">
          <mxGeometry x="670" y="-620" width="560" height="270" as="geometry" />
        </mxCell>
        <mxCell id="qeXCjTXnuI4fohfO-JNT-71" value="" style="rounded=0;whiteSpace=wrap;html=1;" parent="1" vertex="1">
          <mxGeometry x="670" y="-620" width="560" height="40" as="geometry" />
        </mxCell>
        <mxCell id="qeXCjTXnuI4fohfO-JNT-72" value="&lt;font style=&quot;font-size: 15px;&quot;&gt;Contact&amp;nbsp;&lt;/font&gt;" style="text;html=1;strokeColor=none;fillColor=none;align=center;verticalAlign=middle;whiteSpace=wrap;rounded=0;" parent="1" vertex="1">
          <mxGeometry x="1160" y="-615" width="60" height="30" as="geometry" />
        </mxCell>
        <mxCell id="qeXCjTXnuI4fohfO-JNT-73" value="&lt;font style=&quot;font-size: 14px;&quot;&gt;Logo&lt;/font&gt;" style="text;html=1;strokeColor=none;fillColor=none;align=center;verticalAlign=middle;whiteSpace=wrap;rounded=0;" parent="1" vertex="1">
          <mxGeometry x="680" y="-615" width="60" height="30" as="geometry" />
        </mxCell>
        <mxCell id="qeXCjTXnuI4fohfO-JNT-74" value="&lt;font style=&quot;font-size: 15px;&quot;&gt;About&lt;/font&gt;" style="text;html=1;strokeColor=none;fillColor=none;align=center;verticalAlign=middle;whiteSpace=wrap;rounded=0;" parent="1" vertex="1">
          <mxGeometry x="1090" y="-615" width="60" height="30" as="geometry" />
        </mxCell>
        <mxCell id="qeXCjTXnuI4fohfO-JNT-75" value="&lt;font style=&quot;font-size: 30px;&quot;&gt;About Us&lt;/font&gt;" style="text;html=1;strokeColor=none;fillColor=none;align=center;verticalAlign=middle;whiteSpace=wrap;rounded=0;" parent="1" vertex="1">
          <mxGeometry x="840" y="-550" width="220" height="30" as="geometry" />
        </mxCell>
        <mxCell id="qeXCjTXnuI4fohfO-JNT-76" value="&lt;font style=&quot;font-size: 15px;&quot;&gt;Lorem Lorem Lorem Lorem&lt;/font&gt;" style="text;html=1;strokeColor=none;fillColor=none;align=center;verticalAlign=middle;whiteSpace=wrap;rounded=0;" parent="1" vertex="1">
          <mxGeometry x="835" y="-510" width="230" height="30" as="geometry" />
        </mxCell>
        <mxCell id="qeXCjTXnuI4fohfO-JNT-77" value="Lorem ipsum dolor sit amet, consectetur adipisicing elit, sed do eiusmod tempor incididunt ut labore et dolore magna aliqua." style="text;html=1;strokeColor=none;fillColor=none;align=center;verticalAlign=middle;whiteSpace=wrap;rounded=0;" parent="1" vertex="1">
          <mxGeometry x="810" y="-475" width="280" height="65" as="geometry" />
        </mxCell>
        <mxCell id="qeXCjTXnuI4fohfO-JNT-78" value="&lt;font style=&quot;font-size: 20px;&quot;&gt;Contact Us Page&lt;/font&gt;" style="text;html=1;strokeColor=none;fillColor=none;align=center;verticalAlign=middle;whiteSpace=wrap;rounded=0;" parent="1" vertex="1">
          <mxGeometry x="1520" y="-660" width="160" height="20" as="geometry" />
        </mxCell>
        <mxCell id="qeXCjTXnuI4fohfO-JNT-79" value="" style="rounded=0;whiteSpace=wrap;html=1;" parent="1" vertex="1">
          <mxGeometry x="1320" y="-620" width="560" height="750" as="geometry" />
        </mxCell>
        <mxCell id="qeXCjTXnuI4fohfO-JNT-80" value="" style="rounded=0;whiteSpace=wrap;html=1;" parent="1" vertex="1">
          <mxGeometry x="1320" y="-620" width="560" height="40" as="geometry" />
        </mxCell>
        <mxCell id="qeXCjTXnuI4fohfO-JNT-81" value="&lt;font style=&quot;font-size: 15px;&quot;&gt;Contact&amp;nbsp;&lt;/font&gt;" style="text;html=1;strokeColor=none;fillColor=none;align=center;verticalAlign=middle;whiteSpace=wrap;rounded=0;" parent="1" vertex="1">
          <mxGeometry x="1810" y="-615" width="60" height="30" as="geometry" />
        </mxCell>
        <mxCell id="qeXCjTXnuI4fohfO-JNT-82" value="&lt;font style=&quot;font-size: 14px;&quot;&gt;Logo&lt;/font&gt;" style="text;html=1;strokeColor=none;fillColor=none;align=center;verticalAlign=middle;whiteSpace=wrap;rounded=0;" parent="1" vertex="1">
          <mxGeometry x="1330" y="-615" width="60" height="30" as="geometry" />
        </mxCell>
        <mxCell id="qeXCjTXnuI4fohfO-JNT-83" value="&lt;font style=&quot;font-size: 15px;&quot;&gt;About&lt;/font&gt;" style="text;html=1;strokeColor=none;fillColor=none;align=center;verticalAlign=middle;whiteSpace=wrap;rounded=0;" parent="1" vertex="1">
          <mxGeometry x="1740" y="-615" width="60" height="30" as="geometry" />
        </mxCell>
        <mxCell id="qeXCjTXnuI4fohfO-JNT-84" value="&lt;font style=&quot;font-size: 30px;&quot;&gt;Contact Us&lt;/font&gt;" style="text;html=1;strokeColor=none;fillColor=none;align=center;verticalAlign=middle;whiteSpace=wrap;rounded=0;" parent="1" vertex="1">
          <mxGeometry x="1490" y="-550" width="220" height="30" as="geometry" />
        </mxCell>
        <mxCell id="qeXCjTXnuI4fohfO-JNT-85" value="&lt;font style=&quot;font-size: 15px;&quot;&gt;Contact the help team ^_^&lt;/font&gt;" style="text;html=1;strokeColor=none;fillColor=none;align=center;verticalAlign=middle;whiteSpace=wrap;rounded=0;" parent="1" vertex="1">
          <mxGeometry x="1485" y="-510" width="230" height="30" as="geometry" />
        </mxCell>
        <mxCell id="qeXCjTXnuI4fohfO-JNT-87" value="" style="rounded=0;whiteSpace=wrap;html=1;" parent="1" vertex="1">
          <mxGeometry x="1330" y="-430" width="540" height="550" as="geometry" />
        </mxCell>
        <mxCell id="qeXCjTXnuI4fohfO-JNT-88" value="&lt;font style=&quot;font-size: 15px;&quot;&gt;Your Name:&lt;/font&gt;" style="text;html=1;strokeColor=none;fillColor=none;align=left;verticalAlign=middle;whiteSpace=wrap;rounded=0;" parent="1" vertex="1">
          <mxGeometry x="1350" y="-415" width="90" height="30" as="geometry" />
        </mxCell>
        <mxCell id="qeXCjTXnuI4fohfO-JNT-89" value="&amp;nbsp; &amp;nbsp; Enter your name here" style="rounded=0;whiteSpace=wrap;html=1;align=left;" parent="1" vertex="1">
          <mxGeometry x="1350" y="-380" width="500" height="30" as="geometry" />
        </mxCell>
        <mxCell id="qeXCjTXnuI4fohfO-JNT-90" value="&lt;font color=&quot;#ff0000&quot; style=&quot;font-size: 14px;&quot;&gt;*&lt;/font&gt;" style="text;html=1;strokeColor=none;fillColor=none;align=center;verticalAlign=middle;whiteSpace=wrap;rounded=0;" parent="1" vertex="1">
          <mxGeometry x="1830" y="-400" width="20" height="20" as="geometry" />
        </mxCell>
        <mxCell id="qeXCjTXnuI4fohfO-JNT-94" value="&lt;span style=&quot;font-size: 15px;&quot;&gt;Email:&lt;/span&gt;" style="text;html=1;strokeColor=none;fillColor=none;align=left;verticalAlign=middle;whiteSpace=wrap;rounded=0;" parent="1" vertex="1">
          <mxGeometry x="1350" y="-180" width="90" height="30" as="geometry" />
        </mxCell>
        <mxCell id="qeXCjTXnuI4fohfO-JNT-95" value="&amp;nbsp; &amp;nbsp; Enter your email here" style="rounded=0;whiteSpace=wrap;html=1;align=left;" parent="1" vertex="1">
          <mxGeometry x="1350" y="-145" width="500" height="30" as="geometry" />
        </mxCell>
        <mxCell id="qeXCjTXnuI4fohfO-JNT-96" value="&lt;font color=&quot;#ff0000&quot; style=&quot;font-size: 14px;&quot;&gt;*&lt;/font&gt;" style="text;html=1;strokeColor=none;fillColor=none;align=center;verticalAlign=middle;whiteSpace=wrap;rounded=0;" parent="1" vertex="1">
          <mxGeometry x="1830" y="-165" width="20" height="20" as="geometry" />
        </mxCell>
        <mxCell id="qeXCjTXnuI4fohfO-JNT-97" value="&lt;font style=&quot;font-size: 15px;&quot;&gt;Details:&lt;/font&gt;" style="text;html=1;strokeColor=none;fillColor=none;align=left;verticalAlign=middle;whiteSpace=wrap;rounded=0;" parent="1" vertex="1">
          <mxGeometry x="1350" y="-90" width="90" height="30" as="geometry" />
        </mxCell>
        <mxCell id="qeXCjTXnuI4fohfO-JNT-98" value="&amp;nbsp; &amp;nbsp; Enter the details here" style="rounded=0;whiteSpace=wrap;html=1;align=left;verticalAlign=top;" parent="1" vertex="1">
          <mxGeometry x="1350" y="-55" width="500" height="105" as="geometry" />
        </mxCell>
        <mxCell id="qeXCjTXnuI4fohfO-JNT-99" value="&lt;font color=&quot;#ff0000&quot; style=&quot;font-size: 14px;&quot;&gt;*&lt;/font&gt;" style="text;html=1;strokeColor=none;fillColor=none;align=center;verticalAlign=middle;whiteSpace=wrap;rounded=0;" parent="1" vertex="1">
          <mxGeometry x="1830" y="-75" width="20" height="20" as="geometry" />
        </mxCell>
        <mxCell id="qeXCjTXnuI4fohfO-JNT-100" value="Submit" style="rounded=1;whiteSpace=wrap;html=1;" parent="1" vertex="1">
          <mxGeometry x="1350" y="70" width="80" height="30" as="geometry" />
        </mxCell>
        <mxCell id="qeXCjTXnuI4fohfO-JNT-101" value="&lt;span style=&quot;font-size: 20px;&quot;&gt;Product Dedails Page&lt;/span&gt;" style="text;html=1;strokeColor=none;fillColor=none;align=center;verticalAlign=middle;whiteSpace=wrap;rounded=0;" parent="1" vertex="1">
          <mxGeometry x="850" y="-280" width="200" height="20" as="geometry" />
        </mxCell>
        <mxCell id="qeXCjTXnuI4fohfO-JNT-102" value="" style="rounded=0;whiteSpace=wrap;html=1;" parent="1" vertex="1">
          <mxGeometry x="670" y="-240" width="560" height="560" as="geometry" />
        </mxCell>
        <mxCell id="qeXCjTXnuI4fohfO-JNT-103" value="" style="rounded=0;whiteSpace=wrap;html=1;" parent="1" vertex="1">
          <mxGeometry x="670" y="-240" width="560" height="40" as="geometry" />
        </mxCell>
        <mxCell id="qeXCjTXnuI4fohfO-JNT-104" value="&lt;font style=&quot;font-size: 15px;&quot;&gt;Contact&amp;nbsp;&lt;/font&gt;" style="text;html=1;strokeColor=none;fillColor=none;align=center;verticalAlign=middle;whiteSpace=wrap;rounded=0;" parent="1" vertex="1">
          <mxGeometry x="1160" y="-235" width="60" height="30" as="geometry" />
        </mxCell>
        <mxCell id="qeXCjTXnuI4fohfO-JNT-105" value="&lt;font style=&quot;font-size: 14px;&quot;&gt;Logo&lt;/font&gt;" style="text;html=1;strokeColor=none;fillColor=none;align=center;verticalAlign=middle;whiteSpace=wrap;rounded=0;" parent="1" vertex="1">
          <mxGeometry x="680" y="-235" width="60" height="30" as="geometry" />
        </mxCell>
        <mxCell id="qeXCjTXnuI4fohfO-JNT-106" value="&lt;font style=&quot;font-size: 15px;&quot;&gt;About&lt;/font&gt;" style="text;html=1;strokeColor=none;fillColor=none;align=center;verticalAlign=middle;whiteSpace=wrap;rounded=0;" parent="1" vertex="1">
          <mxGeometry x="1090" y="-235" width="60" height="30" as="geometry" />
        </mxCell>
        <mxCell id="qeXCjTXnuI4fohfO-JNT-107" value="" style="rounded=0;whiteSpace=wrap;html=1;" parent="1" vertex="1">
          <mxGeometry x="690" y="-175" width="520" height="165" as="geometry" />
        </mxCell>
        <mxCell id="qeXCjTXnuI4fohfO-JNT-108" value="&lt;font style=&quot;font-size: 20px;&quot;&gt;IMG&lt;/font&gt;" style="rounded=0;whiteSpace=wrap;html=1;" parent="1" vertex="1">
          <mxGeometry x="710" y="-155" width="120" height="125" as="geometry" />
        </mxCell>
        <mxCell id="qeXCjTXnuI4fohfO-JNT-110" value="&lt;h1&gt;Heading&lt;/h1&gt;&lt;p&gt;Lorem ipsum dolor sit amet, consectetur adipisicing elit, sed do eiusmod tempor incididunt ut labore et dolore magna aliqua.&lt;/p&gt;" style="text;html=1;strokeColor=none;fillColor=none;spacing=5;spacingTop=-20;whiteSpace=wrap;overflow=hidden;rounded=0;" parent="1" vertex="1">
          <mxGeometry x="840" y="-165" width="190" height="120" as="geometry" />
        </mxCell>
        <mxCell id="qeXCjTXnuI4fohfO-JNT-111" value="Buy" style="rounded=1;whiteSpace=wrap;html=1;" parent="1" vertex="1">
          <mxGeometry x="1130" y="-45" width="60" height="20" as="geometry" />
        </mxCell>
        <mxCell id="qeXCjTXnuI4fohfO-JNT-112" value="&lt;font style=&quot;font-size: 13px;&quot;&gt;Price only: 30$&lt;/font&gt;" style="text;html=1;strokeColor=none;fillColor=none;align=left;verticalAlign=middle;whiteSpace=wrap;rounded=0;" parent="1" vertex="1">
          <mxGeometry x="840" y="-50" width="110" height="30" as="geometry" />
        </mxCell>
        <mxCell id="qeXCjTXnuI4fohfO-JNT-113" value="&lt;font style=&quot;font-size: 17px;&quot;&gt;Might You Like&lt;/font&gt;" style="text;html=1;strokeColor=none;fillColor=none;align=center;verticalAlign=middle;whiteSpace=wrap;rounded=0;" parent="1" vertex="1">
          <mxGeometry x="880" y="10" width="150" height="30" as="geometry" />
        </mxCell>
        <mxCell id="qeXCjTXnuI4fohfO-JNT-114" value="" style="rounded=0;whiteSpace=wrap;html=1;" parent="1" vertex="1">
          <mxGeometry x="700" y="60" width="120" height="170" as="geometry" />
        </mxCell>
        <mxCell id="qeXCjTXnuI4fohfO-JNT-115" value="IMG" style="rounded=0;whiteSpace=wrap;html=1;" parent="1" vertex="1">
          <mxGeometry x="700" y="60" width="120" height="70" as="geometry" />
        </mxCell>
        <mxCell id="qeXCjTXnuI4fohfO-JNT-116" value="Details" style="rounded=1;whiteSpace=wrap;html=1;" parent="1" vertex="1">
          <mxGeometry x="707.5" y="200" width="45" height="25" as="geometry" />
        </mxCell>
        <mxCell id="qeXCjTXnuI4fohfO-JNT-117" value="&lt;font style=&quot;font-size: 15px;&quot;&gt;&lt;b&gt;Title&lt;/b&gt;&lt;/font&gt;" style="text;html=1;strokeColor=none;fillColor=none;align=left;verticalAlign=middle;whiteSpace=wrap;rounded=0;" parent="1" vertex="1">
          <mxGeometry x="700" y="130" width="120" height="30" as="geometry" />
        </mxCell>
        <mxCell id="qeXCjTXnuI4fohfO-JNT-118" value="lorem lorem lorem lorem" style="text;html=1;strokeColor=none;fillColor=none;align=left;verticalAlign=middle;whiteSpace=wrap;rounded=0;" parent="1" vertex="1">
          <mxGeometry x="700" y="160" width="120" height="30" as="geometry" />
        </mxCell>
        <mxCell id="qeXCjTXnuI4fohfO-JNT-119" value="" style="rounded=0;whiteSpace=wrap;html=1;" parent="1" vertex="1">
          <mxGeometry x="895" y="60" width="120" height="170" as="geometry" />
        </mxCell>
        <mxCell id="qeXCjTXnuI4fohfO-JNT-120" value="IMG" style="rounded=0;whiteSpace=wrap;html=1;" parent="1" vertex="1">
          <mxGeometry x="895" y="60" width="120" height="70" as="geometry" />
        </mxCell>
        <mxCell id="qeXCjTXnuI4fohfO-JNT-121" value="Details" style="rounded=1;whiteSpace=wrap;html=1;" parent="1" vertex="1">
          <mxGeometry x="902.5" y="200" width="45" height="25" as="geometry" />
        </mxCell>
        <mxCell id="qeXCjTXnuI4fohfO-JNT-122" value="&lt;font style=&quot;font-size: 15px;&quot;&gt;&lt;b&gt;Title&lt;/b&gt;&lt;/font&gt;" style="text;html=1;strokeColor=none;fillColor=none;align=left;verticalAlign=middle;whiteSpace=wrap;rounded=0;" parent="1" vertex="1">
          <mxGeometry x="895" y="130" width="120" height="30" as="geometry" />
        </mxCell>
        <mxCell id="qeXCjTXnuI4fohfO-JNT-123" value="lorem lorem lorem lorem" style="text;html=1;strokeColor=none;fillColor=none;align=left;verticalAlign=middle;whiteSpace=wrap;rounded=0;" parent="1" vertex="1">
          <mxGeometry x="895" y="160" width="120" height="30" as="geometry" />
        </mxCell>
        <mxCell id="qeXCjTXnuI4fohfO-JNT-124" value="" style="rounded=0;whiteSpace=wrap;html=1;" parent="1" vertex="1">
          <mxGeometry x="1080" y="60" width="120" height="170" as="geometry" />
        </mxCell>
        <mxCell id="qeXCjTXnuI4fohfO-JNT-125" value="IMG" style="rounded=0;whiteSpace=wrap;html=1;" parent="1" vertex="1">
          <mxGeometry x="1080" y="60" width="120" height="70" as="geometry" />
        </mxCell>
        <mxCell id="qeXCjTXnuI4fohfO-JNT-126" value="Details" style="rounded=1;whiteSpace=wrap;html=1;" parent="1" vertex="1">
          <mxGeometry x="1087.5" y="200" width="45" height="25" as="geometry" />
        </mxCell>
        <mxCell id="qeXCjTXnuI4fohfO-JNT-127" value="&lt;font style=&quot;font-size: 15px;&quot;&gt;&lt;b&gt;Title&lt;/b&gt;&lt;/font&gt;" style="text;html=1;strokeColor=none;fillColor=none;align=left;verticalAlign=middle;whiteSpace=wrap;rounded=0;" parent="1" vertex="1">
          <mxGeometry x="1080" y="130" width="120" height="30" as="geometry" />
        </mxCell>
        <mxCell id="qeXCjTXnuI4fohfO-JNT-128" value="lorem lorem lorem lorem" style="text;html=1;strokeColor=none;fillColor=none;align=left;verticalAlign=middle;whiteSpace=wrap;rounded=0;" parent="1" vertex="1">
          <mxGeometry x="1080" y="160" width="120" height="30" as="geometry" />
        </mxCell>
        <mxCell id="qeXCjTXnuI4fohfO-JNT-129" value="Back" style="rounded=1;whiteSpace=wrap;html=1;" parent="1" vertex="1">
          <mxGeometry x="700" y="260" width="70" height="30" as="geometry" />
        </mxCell>
        <mxCell id="qeXCjTXnuI4fohfO-JNT-130" value="" style="triangle;whiteSpace=wrap;html=1;rotation=-180;" parent="1" vertex="1">
          <mxGeometry x="40" y="-475" width="30" height="50" as="geometry" />
        </mxCell>
        <mxCell id="qeXCjTXnuI4fohfO-JNT-131" value="&lt;span style=&quot;font-size: 20px;&quot;&gt;After Submit Form Page&lt;/span&gt;" style="text;html=1;strokeColor=none;fillColor=none;align=center;verticalAlign=middle;whiteSpace=wrap;rounded=0;" parent="1" vertex="1">
          <mxGeometry x="2160" y="-660" width="160" height="20" as="geometry" />
        </mxCell>
        <mxCell id="qeXCjTXnuI4fohfO-JNT-132" value="" style="rounded=0;whiteSpace=wrap;html=1;" parent="1" vertex="1">
          <mxGeometry x="1960" y="-620" width="560" height="270" as="geometry" />
        </mxCell>
        <mxCell id="qeXCjTXnuI4fohfO-JNT-133" value="" style="rounded=0;whiteSpace=wrap;html=1;" parent="1" vertex="1">
          <mxGeometry x="1960" y="-620" width="560" height="40" as="geometry" />
        </mxCell>
        <mxCell id="qeXCjTXnuI4fohfO-JNT-134" value="&lt;font style=&quot;font-size: 15px;&quot;&gt;Contact&amp;nbsp;&lt;/font&gt;" style="text;html=1;strokeColor=none;fillColor=none;align=center;verticalAlign=middle;whiteSpace=wrap;rounded=0;" parent="1" vertex="1">
          <mxGeometry x="2450" y="-615" width="60" height="30" as="geometry" />
        </mxCell>
        <mxCell id="qeXCjTXnuI4fohfO-JNT-135" value="&lt;font style=&quot;font-size: 14px;&quot;&gt;Logo&lt;/font&gt;" style="text;html=1;strokeColor=none;fillColor=none;align=center;verticalAlign=middle;whiteSpace=wrap;rounded=0;" parent="1" vertex="1">
          <mxGeometry x="1970" y="-615" width="60" height="30" as="geometry" />
        </mxCell>
        <mxCell id="qeXCjTXnuI4fohfO-JNT-136" value="&lt;font style=&quot;font-size: 15px;&quot;&gt;About&lt;/font&gt;" style="text;html=1;strokeColor=none;fillColor=none;align=center;verticalAlign=middle;whiteSpace=wrap;rounded=0;" parent="1" vertex="1">
          <mxGeometry x="2380" y="-615" width="60" height="30" as="geometry" />
        </mxCell>
        <mxCell id="qeXCjTXnuI4fohfO-JNT-137" value="&lt;font style=&quot;font-size: 30px;&quot;&gt;Thanks &amp;lt;3&lt;/font&gt;" style="text;html=1;strokeColor=none;fillColor=none;align=center;verticalAlign=middle;whiteSpace=wrap;rounded=0;" parent="1" vertex="1">
          <mxGeometry x="2130" y="-550" width="220" height="30" as="geometry" />
        </mxCell>
        <mxCell id="qeXCjTXnuI4fohfO-JNT-138" value="&lt;font style=&quot;font-size: 15px;&quot;&gt;Thank you for fill the form and help our team&lt;/font&gt;" style="text;html=1;strokeColor=none;fillColor=none;align=center;verticalAlign=middle;whiteSpace=wrap;rounded=0;" parent="1" vertex="1">
          <mxGeometry x="2125" y="-500" width="230" height="50" as="geometry" />
        </mxCell>
        <mxCell id="qeXCjTXnuI4fohfO-JNT-141" value="&lt;font style=&quot;font-size: 14px;&quot;&gt;Back To Home&lt;br&gt;&lt;/font&gt;" style="rounded=1;whiteSpace=wrap;html=1;" parent="1" vertex="1">
          <mxGeometry x="2180" y="-430" width="120" height="40" as="geometry" />
        </mxCell>
        <mxCell id="qeXCjTXnuI4fohfO-JNT-142" value="&lt;span style=&quot;font-size: 20px;&quot;&gt;404 Custom Page&lt;/span&gt;" style="text;html=1;strokeColor=none;fillColor=none;align=center;verticalAlign=middle;whiteSpace=wrap;rounded=0;" parent="1" vertex="1">
          <mxGeometry x="2160" y="-300" width="160" height="20" as="geometry" />
        </mxCell>
        <mxCell id="qeXCjTXnuI4fohfO-JNT-143" value="" style="rounded=0;whiteSpace=wrap;html=1;" parent="1" vertex="1">
          <mxGeometry x="1960" y="-260" width="560" height="210" as="geometry" />
        </mxCell>
        <mxCell id="qeXCjTXnuI4fohfO-JNT-144" value="" style="rounded=0;whiteSpace=wrap;html=1;" parent="1" vertex="1">
          <mxGeometry x="1960" y="-260" width="560" height="40" as="geometry" />
        </mxCell>
        <mxCell id="qeXCjTXnuI4fohfO-JNT-145" value="&lt;font style=&quot;font-size: 15px;&quot;&gt;Contact&amp;nbsp;&lt;/font&gt;" style="text;html=1;strokeColor=none;fillColor=none;align=center;verticalAlign=middle;whiteSpace=wrap;rounded=0;" parent="1" vertex="1">
          <mxGeometry x="2450" y="-255" width="60" height="30" as="geometry" />
        </mxCell>
        <mxCell id="qeXCjTXnuI4fohfO-JNT-146" value="&lt;font style=&quot;font-size: 14px;&quot;&gt;Logo&lt;/font&gt;" style="text;html=1;strokeColor=none;fillColor=none;align=center;verticalAlign=middle;whiteSpace=wrap;rounded=0;" parent="1" vertex="1">
          <mxGeometry x="1970" y="-255" width="60" height="30" as="geometry" />
        </mxCell>
        <mxCell id="qeXCjTXnuI4fohfO-JNT-147" value="&lt;font style=&quot;font-size: 15px;&quot;&gt;About&lt;/font&gt;" style="text;html=1;strokeColor=none;fillColor=none;align=center;verticalAlign=middle;whiteSpace=wrap;rounded=0;" parent="1" vertex="1">
          <mxGeometry x="2380" y="-255" width="60" height="30" as="geometry" />
        </mxCell>
        <mxCell id="qeXCjTXnuI4fohfO-JNT-148" value="&lt;font style=&quot;font-size: 30px;&quot;&gt;Error 404&lt;/font&gt;" style="text;html=1;strokeColor=none;fillColor=none;align=center;verticalAlign=middle;whiteSpace=wrap;rounded=0;" parent="1" vertex="1">
          <mxGeometry x="2130" y="-190" width="220" height="30" as="geometry" />
        </mxCell>
        <mxCell id="qeXCjTXnuI4fohfO-JNT-149" value="&lt;font style=&quot;font-size: 15px;&quot;&gt;Page not found&lt;br&gt;check the url or back to &lt;u&gt;home&lt;/u&gt;&lt;br&gt;&lt;/font&gt;" style="text;html=1;strokeColor=none;fillColor=none;align=center;verticalAlign=middle;whiteSpace=wrap;rounded=0;" parent="1" vertex="1">
          <mxGeometry x="2125" y="-140" width="230" height="50" as="geometry" />
        </mxCell>
        <mxCell id="MLJWEVJkl3sJtZxmjFba-2" value="&lt;font style=&quot;font-size: 15px;&quot;&gt;Subject:&lt;/font&gt;" style="text;html=1;strokeColor=none;fillColor=none;align=left;verticalAlign=middle;whiteSpace=wrap;rounded=0;" parent="1" vertex="1">
          <mxGeometry x="1350" y="-330" width="90" height="30" as="geometry" />
        </mxCell>
        <mxCell id="MLJWEVJkl3sJtZxmjFba-3" value="&amp;nbsp; &amp;nbsp; Message Of Thanks" style="rounded=0;whiteSpace=wrap;html=1;align=left;" parent="1" vertex="1">
          <mxGeometry x="1350" y="-290" width="500" height="30" as="geometry" />
        </mxCell>
        <mxCell id="MLJWEVJkl3sJtZxmjFba-4" value="&lt;font color=&quot;#ff0000&quot; style=&quot;font-size: 14px;&quot;&gt;*&lt;/font&gt;" style="text;html=1;strokeColor=none;fillColor=none;align=center;verticalAlign=middle;whiteSpace=wrap;rounded=0;" parent="1" vertex="1">
          <mxGeometry x="1830" y="-310" width="20" height="20" as="geometry" />
        </mxCell>
        <mxCell id="MLJWEVJkl3sJtZxmjFba-5" value="" style="triangle;whiteSpace=wrap;html=1;rotation=-90;" parent="1" vertex="1">
          <mxGeometry x="1820" y="-282.5" width="10" height="15" as="geometry" />
        </mxCell>
        <mxCell id="MLJWEVJkl3sJtZxmjFba-6" value="&amp;nbsp; &amp;nbsp; Problem Report" style="rounded=0;whiteSpace=wrap;html=1;align=left;" parent="1" vertex="1">
          <mxGeometry x="1350" y="-260" width="500" height="30" as="geometry" />
        </mxCell>
        <mxCell id="MLJWEVJkl3sJtZxmjFba-8" value="&amp;nbsp; &amp;nbsp; Development Message" style="rounded=0;whiteSpace=wrap;html=1;align=left;" parent="1" vertex="1">
          <mxGeometry x="1350" y="-230" width="500" height="30" as="geometry" />
        </mxCell>
        <mxCell id="MLJWEVJkl3sJtZxmjFba-9" value="Text" style="text;strokeColor=none;align=center;fillColor=none;html=1;verticalAlign=middle;whiteSpace=wrap;rounded=0;" parent="1" vertex="1">
          <mxGeometry x="1520" y="-230" width="60" height="30" as="geometry" />
        </mxCell>
        <mxCell id="1YJrIi4N7y-bmi4VP_Ih-1" value="&lt;font style=&quot;font-size: 20px;&quot;&gt;✅&lt;/font&gt;" style="text;html=1;strokeColor=none;fillColor=none;align=center;verticalAlign=middle;whiteSpace=wrap;rounded=0;" parent="1" vertex="1">
          <mxGeometry x="520" y="-660" width="60" height="30" as="geometry" />
        </mxCell>
        <mxCell id="1YJrIi4N7y-bmi4VP_Ih-2" value="&lt;font style=&quot;font-size: 20px;&quot;&gt;✅&lt;/font&gt;" style="text;html=1;strokeColor=none;fillColor=none;align=center;verticalAlign=middle;whiteSpace=wrap;rounded=0;" parent="1" vertex="1">
          <mxGeometry x="1170" y="-660" width="60" height="30" as="geometry" />
        </mxCell>
        <mxCell id="Cj3PPamgUYpAYYcDvgka-1" value="&lt;font style=&quot;font-size: 20px;&quot;&gt;✅&lt;/font&gt;" style="text;html=1;strokeColor=none;fillColor=none;align=center;verticalAlign=middle;whiteSpace=wrap;rounded=0;" parent="1" vertex="1">
          <mxGeometry x="1820" y="-660" width="60" height="30" as="geometry" />
        </mxCell>
        <mxCell id="Cj3PPamgUYpAYYcDvgka-2" value="&lt;font style=&quot;font-size: 20px;&quot;&gt;✅&lt;/font&gt;" style="text;html=1;strokeColor=none;fillColor=none;align=center;verticalAlign=middle;whiteSpace=wrap;rounded=0;" parent="1" vertex="1">
          <mxGeometry x="2460" y="-660" width="60" height="30" as="geometry" />
        </mxCell>
        <mxCell id="Cj3PPamgUYpAYYcDvgka-3" value="&lt;font style=&quot;font-size: 20px;&quot;&gt;✅&lt;/font&gt;" style="text;html=1;strokeColor=none;fillColor=none;align=center;verticalAlign=middle;whiteSpace=wrap;rounded=0;" parent="1" vertex="1">
          <mxGeometry x="2460" y="-297.5" width="60" height="30" as="geometry" />
        </mxCell>
        <mxCell id="Cj3PPamgUYpAYYcDvgka-4" value="&lt;font style=&quot;font-size: 20px;&quot;&gt;✅&lt;/font&gt;" style="text;html=1;strokeColor=none;fillColor=none;align=center;verticalAlign=middle;whiteSpace=wrap;rounded=0;" parent="1" vertex="1">
          <mxGeometry x="1170" y="-280" width="60" height="30" as="geometry" />
        </mxCell>
      </root>
    </mxGraphModel>
  </diagram>
</mxfile>
